<svg width="476" height="377" viewBox="0 0 476 377" fill="none" xmlns="http://www.w3.org/2000/svg">
<g clip-path="url(#clip0_183_1675)">
<path d="M422.615 253.497C417.207 264.175 415.78 276.06 412.343 287.348C409.749 296.067 405.002 303.294 397.272 308.444C395.817 309.691 394.512 311.102 393.381 312.648C377.687 308.25 361.799 308.302 345.807 310.546C343.991 304.422 344.834 298.104 344.367 291.889C343.135 275.995 338.686 261.412 327.389 249.527C313.859 235.282 298.574 222.813 281.903 212.42C257.623 197.253 230.996 189.598 202.566 187.25C187.741 186.017 172.812 186.043 159.583 176.144C150.05 169.008 146.341 160.457 145.964 149.637C145.744 143.409 146.224 143.383 143.747 139.672C143.254 144.447 145.368 151.116 136.094 148.754C138.079 152.647 139.752 155.825 141.282 159.056C141.931 160.354 142.579 162.053 141.101 163.195C139.946 164.064 138.61 163.299 137.482 162.65C132.061 159.562 126.639 156.422 121.231 153.295C120.686 150.701 121.918 149.286 124.253 148.469C128.494 146.977 127.871 144.226 125.77 141.476C124.047 139.275 121.834 137.506 119.308 136.31C116.782 135.114 114.012 134.524 111.218 134.586C106.133 134.781 109.674 141.151 108.027 144.382C107.951 144.584 107.895 144.792 107.859 145.005C102.8 141.813 97.7419 138.613 92.6836 135.404C89.59 133.56 87.0462 130.921 85.3166 127.762C81.0495 119.977 86.9378 114.865 89.2076 108.767C90.5046 111.453 89.6097 116.033 93.8638 116.098C97.3009 116.098 100.193 113.775 101.789 110.415C102.074 109.844 102.23 109.208 102.489 108.624C104.24 104.524 102.204 101.06 99.3631 99.0491C96.1855 96.8045 94.8107 100.84 92.9819 102.643C91.9731 103.736 91.0249 104.884 90.1414 106.081C89.5059 102.189 89.7394 98.0241 85.3815 94.8454C89.1946 102.319 85.4593 108.066 82.9301 114.022L79.7265 112.296L77.5605 105.459C78.2479 102.072 76.3673 100.269 72.4763 97.9333C73.7733 100.943 74.4347 102.604 75.0703 104.265C74.8212 104.961 74.7202 105.701 74.7738 106.439C74.8274 107.176 75.0344 107.894 75.3816 108.546C75.0018 108.694 74.6853 108.969 74.4866 109.325C66.5101 96.3504 63.6177 74.3846 69.9341 62.1626C86.0818 30.8682 131.775 22.1234 159.427 45.1401C168.506 52.7432 176.288 61.7734 185.588 69.1818C199.686 80.3788 214.667 80.768 230.529 74.5273C240.111 70.8833 248.034 63.8662 252.812 54.7931C260.84 39.7557 273.992 34.0339 290.191 31.439C318.725 27.0018 337.947 40.1838 353.978 61.6047C367.635 79.8858 376.234 100.671 385.21 121.287C388.53 128.929 390.813 137.025 395.404 144.135C398.465 148.858 402.849 151.829 407.544 154.515C420.086 161.534 431.383 169.916 439.372 182.151V232.751C435.339 236.267 432.758 240.808 430.293 245.479C429.089 247.725 427.295 249.6 425.105 250.903C423.173 250.903 421.214 251.123 419.463 249.994C409.256 243.274 397.648 243.429 386.429 244.688C375.469 245.907 365.275 250.306 357.895 259.245C354.315 263.592 354.004 273.102 357 276.774C362.694 283.702 374.821 285.622 382.252 280.757C388.439 276.683 389.814 268.016 384.924 263.89C384.756 261.801 383.977 260.205 381.565 260.257C381.15 260.257 380.346 261.062 380.411 261.295C380.955 263.202 382.732 263.371 384.302 263.89C384.509 263.903 384.717 263.903 384.924 263.89C384.418 267.782 386.079 271.895 383.031 275.632C378.647 280.977 372.94 279.978 367.635 278.889C364.107 278.162 359.853 276.696 359.127 272.038C358.193 265.719 360.865 260.659 365.703 256.806C373.342 250.721 382.278 248.788 391.915 248.152C402.745 247.412 412.706 249.903 422.615 253.497ZM383.446 184.733C380.852 182.864 378.478 183.513 376.286 183.513C345.923 183.591 315.574 183.254 285.25 181.022C263.473 179.413 242.215 175.534 222.021 167.464C215.536 164.869 209.167 159.173 207.689 151.687C203.629 131.174 219.92 113.594 238.519 114.67C249.102 115.28 256.612 121.767 257.974 131.784C259.582 143.461 249.374 153.101 242.008 154.775C234.641 156.448 229.037 152.27 229.362 145.433C229.634 139.179 234.316 136.455 239.31 133.263C231.385 133.743 225.769 139.361 225.523 146.354C225.276 153.347 229.79 158.031 237.468 158.771C245.717 159.601 251.138 154.658 256.313 149.351C261.852 143.655 263.914 131.952 260.594 125.893C255.795 117.11 243.551 109.87 235.808 111.051C223.681 112.88 214.083 118.238 207.831 129.293C197.702 147.197 205.237 165.946 223.486 172.9C248.272 182.306 274.42 184.849 300.567 185.874C326.014 186.822 351.526 186.095 377 186.043C378.984 186.03 381.189 186.601 383.446 184.733ZM378.141 170.461C374.647 169.045 370.79 168.794 367.142 169.747C353.77 173.004 340.126 172.108 326.65 171.499C318.265 171.201 309.985 169.535 302.137 166.568C299.016 165.45 296.219 163.581 293.991 161.126C291.763 158.671 290.173 155.706 289.361 152.491C287.61 145.731 290.023 139.205 295.314 134.327C301.099 129.033 307.804 129.241 314.627 132.082C321.669 135.014 326.481 142.462 325.21 148.171C323.939 153.879 318.803 155.955 309.555 156.448C303.07 156.786 305.729 151.012 303.213 148.832C299.179 155.527 301.423 159.938 308.635 160.081C310.58 160.081 312.526 160.146 314.458 160.081C326.715 159.601 332.966 148.08 326.715 137.506C322.02 129.552 310.113 124.427 301.67 126.724C290.814 129.669 284.951 137.869 285.185 149.779C285.353 158.926 293.849 169.617 302.552 171.654C327.221 177.441 351.812 176.74 378.141 170.461ZM342.447 214.172C346.689 216.351 350.982 216.105 350.735 220.01C350.476 224.123 347.143 226.095 343.265 226.991C339.916 227.859 336.397 227.819 333.07 226.874C325.885 224.707 323.42 220.62 326.494 213.679C330.502 204.597 338.167 198.68 347.804 198.019C359.892 197.201 372.317 196.15 383.913 201.768C386.507 203.066 389.36 203.844 392.693 201.522C378.815 196.812 365.625 192.517 351.358 193.815C338.945 194.957 328.219 199.342 322.681 211.525C320.372 216.598 320.087 221.775 324.704 226.316C326.497 228.088 328.634 229.473 330.982 230.387C333.331 231.3 335.842 231.723 338.36 231.628C340.879 231.533 343.351 230.923 345.624 229.835C347.897 228.748 349.924 227.205 351.578 225.304C354.38 222.203 354.367 219.219 352.499 215.871C350.45 212.161 347.376 213.277 342.447 214.159V214.172ZM139.259 129.383C139.259 121.443 131.114 115.527 124.992 118.654C123.072 119.653 121.529 120.742 123.228 123.091C125.64 126.399 128.053 129.708 130.569 132.926C131.224 133.809 132.162 134.441 133.226 134.718C134.29 134.994 135.417 134.897 136.419 134.444C138.766 133.548 139.129 131.265 139.259 129.383Z" fill="#CDE6E1"/>
<path d="M204.991 306.784C205.064 305.817 204.841 304.852 204.353 304.015C203.864 303.179 203.132 302.51 202.255 302.1C190.582 296.002 178.26 293.018 165.031 294.588C139.999 297.442 114.746 300.828 90.1158 293.29C72.7489 287.997 56.9385 279.446 44.9412 264.733C37.603 255.743 31.5447 245.779 26.9388 235.125C26.6026 234.082 25.9524 233.168 25.0771 232.509C24.2019 231.849 23.1443 231.476 22.0491 231.441H21.9194C23.6314 224.863 21.9194 218.959 18.4304 213.393C19.1153 212.91 19.7735 212.391 20.4019 211.836C22.3085 209.942 27.6521 210.85 26.3162 206.88C25.2786 203.766 21.1282 205.816 18.3656 205.946C16.9389 201.846 21.5692 195.462 13.3462 194.269C13.8718 193.199 14.7678 192.357 15.8676 191.899C16.9675 191.441 18.1962 191.398 19.3254 191.778C23.3072 193.361 27.4576 192.634 31.4523 192.206C45.46 190.714 59.5065 190.908 73.5271 190.727C75.2003 190.727 77.4181 189.637 78.7151 192.258C64.8761 200.977 56.2251 216.248 40.0774 221.723C37.1592 221.009 34.8894 222.125 32.464 224.642C35.8622 224.733 38.521 225.044 40.0255 222.047C43.6312 222.735 46.5106 220.581 49.7012 219.556C52.8918 218.531 55.9787 215.352 58.3133 216.014C62.6064 217.234 55.6285 221.437 59.0785 223.941C56.0695 227.003 55.9916 230.507 57.0552 234.191C58.4819 230.818 60.9462 227.704 60.0772 223.812C62.1913 222.372 62.6712 219.919 63.6829 217.843C66.2123 212.038 69.887 206.802 74.4869 202.45C79.0867 198.099 84.5172 194.72 90.453 192.517C100.66 188.729 111.633 190.908 122.256 192.271C122.463 192.271 122.58 192.945 122.878 193.568C109.999 206.685 99.532 221.528 94.1106 239.472L91.9575 240.523C90.9588 239.109 91.8019 235.437 89.2727 236.28C83.2806 238.265 76.4194 237.993 71.413 242.677C70.5181 243.52 69.1432 244.415 69.7528 245.829C70.57 247.724 72.3468 246.738 73.6438 246.608C80.2326 245.972 86.134 243.286 91.9835 240.445C93.4102 243.209 88.0925 244.675 90.6865 248.061C93.1508 246.05 95.4983 244.285 95.5502 240.86C101.05 232.66 104.629 223.15 111.828 215.378C113.695 219.816 111.101 223.786 112.723 227.717C113.475 227.016 114.02 226.77 114.02 226.42C115.096 220.724 116.121 215.015 117.145 209.306C118.17 203.597 129.402 192.647 134.629 192.686C141.259 192.587 147.871 193.403 154.279 195.112C144.097 195.657 137.794 202.469 140.011 210.474C140.647 212.809 141.308 214.509 144.382 213.069C151.062 210.072 155.511 202.105 154.214 194.982C168.649 195.475 182.826 198.122 197.015 200.613C221.256 204.869 245.224 210.111 266.897 222.605C286.715 234.01 303.33 248.788 314.458 268.963C321.436 281.626 324.251 295.133 319.231 309.391C312.617 308.094 306.028 308.379 299.309 308.795C285.315 309.638 271.242 310.248 257.274 308.911C239.816 307.329 222.475 305.888 204.991 306.784ZM89.4543 258.687L89.5192 258.765C90.9329 257.364 93.929 257.312 93.4102 254.315C93.2286 253.225 92.1132 253.16 91.335 253.394C86.4582 254.886 81.4259 253.627 76.5362 254.328C73.2009 254.862 70.1331 256.476 67.8041 258.923C65.475 261.37 64.0134 264.515 63.644 267.873C63.4753 269.287 62.8398 271.078 64.4611 271.973C65.8489 272.739 66.8476 271.324 67.7944 270.559C69.9021 268.723 72.36 267.334 75.0195 266.476C77.679 265.617 80.4849 265.307 83.2676 265.564C85.5494 265.664 87.8265 265.279 89.9483 264.434C92.0702 263.588 93.9884 262.302 95.5762 260.659C96.7954 259.492 98.3777 257.896 96.8732 256.248C95.3687 254.6 94.2792 256.845 93.073 257.39C91.8667 257.935 90.6605 258.246 89.4543 258.687ZM279.024 249.916C279.582 247.322 278.363 247.023 277.572 246.387C269.154 239.589 259.297 235.242 249.971 229.962C228.662 217.921 205.51 215.69 181.905 217.571C171.254 218.175 161.273 222.964 154.136 230.896C143.915 242.443 142.969 257.195 154.473 266.096C158.364 269.158 163.02 270.325 167.625 271.052C179.804 272.985 191.295 272.116 200.05 261.58C206.262 254.081 204.537 239.42 196.548 234.165C187.715 228.353 174.213 232.959 168.195 243.844C164.304 250.889 165.134 255.651 171.892 259.842C176.457 262.67 181.438 262.061 185.77 258.765C189.116 256.235 190.504 253.069 188.143 248.956C186.029 249.955 186.989 251.746 186.561 253.056C184.667 258.882 179.765 257.26 175.679 257.338C172.112 257.416 170.076 255.418 169.843 251.798C169.389 244.895 174.097 241.042 179.038 238.045C183.98 235.048 189.414 233.543 194.784 237.707C199.129 241.107 201.995 245.388 200.802 251.123C199.505 257.143 197.119 262.67 190.841 265.239C180.141 269.612 169.428 269.482 159.142 264.201C153.863 261.503 150.543 257.61 150.063 250.617C149.402 240.679 159.246 229.079 169.596 224.953C181.126 220.361 192.942 219.764 205.523 220.685C227.274 222.32 245.808 231.57 264.394 241.314C269.297 243.87 273.979 246.906 279.024 249.89V249.916ZM95.9264 215.794C97.9831 215.914 100.018 215.318 101.685 214.107C103.669 212.809 106.212 211.162 105.68 208.8C105.07 206.076 102.372 204.622 99.3634 204.285C96.5865 204.098 93.8046 204.569 91.2442 205.66C89.3116 206.361 86.6398 206.698 86.2248 209.086C85.7579 211.81 88.4297 212.978 90.1936 214.379C91.8484 215.577 93.9074 216.075 95.9264 215.768V215.794ZM43.8517 240.588C48.482 240.588 53.5014 235.787 53.1771 231.051C53.0215 228.794 54.2277 224.966 49.5326 225.109C44.8374 225.252 38.6896 232.505 39.1565 237.409C39.403 240.224 41.5949 240.523 43.8517 240.588ZM81.387 223.513C81.2443 218.985 75.8358 213.51 71.9318 213.899C68.806 214.224 67.107 216.87 66.6011 219.426C65.9267 222.748 73.1769 228.223 77.4441 228.028C80.5569 227.899 81.1924 225.68 81.387 223.513ZM29.5068 225.732C29.6579 225.801 29.8208 225.841 29.9867 225.849C29.9867 225.849 30.0905 225.654 30.1424 225.55C29.9938 225.487 29.8362 225.448 29.6755 225.434C29.6755 225.434 29.5458 225.628 29.4939 225.732H29.5068Z" fill="#CDE6E1"/>
<path d="M319.192 309.482C324.212 295.21 321.397 281.717 314.419 269.054C303.291 248.879 286.676 234.101 266.858 222.696C245.185 210.202 221.217 204.96 196.976 200.704C182.799 198.213 168.623 195.514 154.175 195.073L154.265 195.151C147.874 193.456 141.279 192.648 134.668 192.751C129.48 192.751 118.17 203.844 117.184 209.371C116.198 214.898 115.135 220.789 114.058 226.485C114.058 226.796 113.501 227.042 112.761 227.782C111.14 223.89 113.734 219.881 111.866 215.443C104.642 223.228 101.088 232.725 95.602 240.912L94.1104 239.524C99.5449 221.58 109.999 206.737 122.878 193.62C122.58 192.971 122.463 192.323 122.255 192.323C111.633 190.96 100.66 188.781 90.4529 192.569C84.5122 194.756 79.0737 198.119 74.4627 202.457C69.8517 206.796 66.1632 212.02 63.6179 217.818C62.6451 219.945 62.1263 222.346 60.0252 223.786C59.8614 223.72 59.6843 223.694 59.5084 223.709C59.3325 223.725 59.1629 223.783 59.0135 223.877C55.5635 221.373 62.5414 217.169 58.2483 215.949C55.9137 215.288 52.6452 218.544 49.6362 219.491C46.6271 220.438 43.5662 222.67 39.9605 221.995V221.723C56.1731 216.248 64.8241 200.964 78.5983 192.258C77.3012 189.663 75.1093 190.701 73.4102 190.727C59.3896 190.947 45.3431 190.727 31.3355 192.206C27.3407 192.634 23.1903 193.361 19.2085 191.778L20.6222 190.753C28.6276 190.112 36.5586 188.749 44.3185 186.679C36.7699 183.046 32.5417 178.712 29.4678 173.198C28.962 172.264 28.4432 171.33 27.9244 170.396C28.08 168.515 28.949 167.451 30.9853 167.723L32.2823 169.28C33.6571 175.897 39.2861 178.635 44.2147 181.71C52.9954 187.198 62.5932 185.187 72.2559 184.564C95.2722 182.897 118.358 182.39 141.425 183.046C143.306 183.111 145.588 184.11 147.482 181.749C138.624 175.936 129.843 170.526 121.425 164.596C107.158 154.554 93.1506 144.2 79.0392 133.963C74.0198 129.877 69.3377 125.335 63.3066 122.65L63.4103 122.728C62.71 120.236 60.4532 119.406 58.5725 118.186C60.985 114.748 61.0887 111.57 57.5349 108.806L54.4481 103.72C54.5518 102.28 54.6686 100.853 54.7723 99.4254C58.5855 103.318 61.2573 107.989 63.7605 112.646C66.2638 117.304 69.2728 121.729 74.1366 124.557C74.1941 124.925 74.3509 125.27 74.5899 125.556C74.829 125.842 75.1413 126.057 75.4934 126.178C75.8455 126.3 76.2239 126.323 76.5882 126.245C76.9524 126.167 77.2886 125.992 77.5607 125.738C79.9601 123.467 77.4699 121.313 76.8084 119.121C76.5101 117.603 76.2247 116.098 75.9394 114.593C76.2507 112.53 76.8473 110.428 75.4206 108.508C75.079 107.865 74.8738 107.159 74.8181 106.433C74.7623 105.707 74.857 104.978 75.0963 104.291L77.5217 105.472L79.6359 112.335C79.4244 112.892 79.4267 113.508 79.6422 114.064C79.8577 114.62 80.2713 115.076 80.8032 115.345C81.9705 116.007 82.593 115.176 82.8524 114.048C85.3816 108.092 89.117 102.371 85.3038 94.8713C89.6617 98.0501 89.4282 102.254 90.0897 106.068L89.1299 108.793C86.8731 114.891 80.9847 119.99 85.2389 127.788C86.9828 130.954 89.5451 133.593 92.6578 135.43C97.6988 138.647 102.757 141.848 107.833 145.031C112.255 147.82 115.978 151.777 121.205 153.321C126.613 156.448 132.035 159.588 137.456 162.676C138.585 163.325 139.921 164.09 141.075 163.221C142.553 162.079 141.905 160.431 141.256 159.082C139.7 155.851 138.027 152.686 136.068 148.78C145.342 151.09 143.228 144.421 143.721 139.698C146.198 143.409 145.718 143.435 145.939 149.663C146.315 160.483 150.024 169.034 159.557 176.169C172.787 186.069 187.715 186.043 202.54 187.276C230.97 189.624 257.598 197.279 281.878 212.446C298.548 222.839 313.833 235.308 327.363 249.553C338.66 261.438 343.109 276.021 344.341 291.915C344.808 298.13 343.965 304.448 345.781 310.572C345.093 317.384 348.777 320.952 354.86 322.742C361.539 324.663 368.232 326.531 374.911 328.425C374.911 328.957 374.821 329.502 374.782 330.034C358.777 326.972 343.109 338.195 326.961 330.099C325.918 329.841 324.844 329.732 323.771 329.775C310.736 327.88 297.636 328.633 284.562 328.62C283.265 328.62 281.424 329.346 280.84 327.05C282.513 324.779 285.211 324.455 287.623 323.871C294.536 322.34 301.501 320.952 308.492 319.81C314.523 318.772 318.181 315.593 319.192 309.482ZM60.1289 214.392C60.2586 214.276 60.4532 214.172 60.4791 214.055C60.5051 213.938 60.3235 213.77 60.2327 213.627C60.116 213.744 59.9084 213.847 59.8955 213.964C59.8825 214.081 60.0381 214.25 60.1289 214.392Z" fill="#897153"/>
<path d="M319.192 309.482C318.181 315.593 314.523 318.772 308.453 319.758C301.462 320.9 294.497 322.288 287.584 323.819C285.172 324.364 282.474 324.727 280.801 326.998C281.385 329.294 283.213 328.555 284.523 328.568C297.597 328.568 310.697 327.828 323.732 329.723C324.805 329.68 325.879 329.789 326.922 330.047C343.07 338.143 358.738 326.92 374.743 329.982C374.743 329.45 374.834 328.905 374.873 328.373C368.193 326.479 361.5 324.611 354.821 322.69C348.751 320.926 345.067 317.332 345.742 310.52C361.734 308.276 377.622 308.224 393.316 312.622C397.077 314.257 400.834 315.883 404.587 317.501C408.589 319.201 412.022 322.01 414.483 325.597C417.855 330.501 419.113 335.976 416.351 341.49C413.757 346.797 408.465 348.055 403.16 347.887C398.445 347.547 393.757 346.897 389.127 345.941C384.431 345.175 379.957 345.733 376.377 348.938C368.764 355.736 359.892 355.568 350.761 353.907C345.042 352.856 339.374 351.416 333.498 351.87C330.554 352.091 328.544 352.882 329.685 356.735C331.929 364.261 329.594 367.426 321.657 367.699C310.982 368.049 300.01 367.31 290.71 362.392C275.911 354.608 260.347 353.492 244.342 353.31C238.078 353.219 231.813 353.025 225.899 350.611C224.329 349.963 222.384 349.171 222.462 347.199C222.54 345.227 224.602 344.682 226.249 344.189C227.896 343.696 229.595 343.437 231.268 343.06C233.136 342.632 235.562 342.528 235.587 340.037C235.587 337.741 233.331 337.092 231.515 336.495C226.176 334.767 220.634 333.746 215.03 333.459C207.657 333.143 200.539 330.676 194.55 326.362C187.508 321.289 187.767 314.828 195.393 310.637C198.503 309.157 201.704 307.878 204.978 306.81C222.462 305.914 239.829 307.354 257.221 309.028C271.19 310.326 285.263 309.755 299.257 308.911C305.963 308.47 312.578 308.211 319.192 309.482Z" fill="#B7CB39"/>
<path d="M79.1171 134.002C93.2284 144.239 107.249 154.593 121.503 164.635C129.921 170.564 138.701 175.975 147.56 181.787C145.666 184.11 143.384 183.085 141.503 183.085C118.436 182.429 95.35 182.936 72.3337 184.603C62.6711 185.226 53.0732 187.198 44.2925 181.748C39.3639 178.673 33.7349 175.936 32.3601 169.319C38.5079 170.175 43.8645 167.035 49.5065 165.608C52.7246 164.674 56.0422 164.125 59.3896 163.973C59.5405 165.865 59.8529 167.74 60.3235 169.578C60.8293 171.135 61.7243 173.017 63.7216 172.861C66.2249 172.653 65.4337 170.344 65.6282 168.826C66.0951 165.258 66.4324 161.677 66.8215 158.096C73.7734 156.15 78.4945 149.221 79.0652 139.841C79.1949 137.869 79.1041 135.936 79.1171 134.002ZM104.344 161.534C103.514 158.68 103.877 154.774 99.7394 153.983C95.3815 153.14 94.4087 156.513 93.3841 159.731C92.7226 161.768 91.6331 163.623 90.8679 165.686C90.1027 167.749 87.1196 169.89 89.2337 172.005C91.3478 174.119 94.5773 173.419 97.2362 172.368C101.983 170.461 103.955 166.568 104.344 161.534Z" fill="#CDE6E1"/>
<path d="M384.989 263.877C389.879 268.029 388.504 276.696 382.317 280.744C374.886 285.609 362.759 283.689 357.065 276.761C354.056 273.089 354.38 263.579 357.96 259.232C365.34 250.293 375.534 245.894 386.494 244.675C397.713 243.377 409.321 243.261 419.528 249.981C421.253 251.11 423.238 250.877 425.17 250.89C424.959 251.488 424.616 252.032 424.167 252.481C423.718 252.93 423.175 253.273 422.576 253.484C412.667 249.916 402.706 247.425 391.928 248.126C382.291 248.762 373.355 250.721 365.716 256.78C360.878 260.672 358.206 265.693 359.14 272.012C359.84 276.67 364.12 278.136 367.648 278.863C372.953 279.952 378.66 280.951 383.044 275.606C386.092 271.869 384.431 267.821 384.937 263.864L384.989 263.877Z" fill="#E6F3F1"/>
<path d="M6.48493 105.874C7.98945 105.874 9.96089 105.64 10.5705 107.041C11.2968 108.702 11.6729 111.128 10.2462 112.504C5.05822 117.512 0.505746 123.389 -6.04412 126.931C-7.34112 127.645 -8.84564 128.423 -10.2464 127.398C-11.6472 126.373 -10.5836 125.024 -10.441 123.817C-9.20881 113.464 -2.1142 106.016 6.48493 105.874Z" fill="#9DAB48"/>
<path d="M8.52117 172.472C8.08019 173.458 7.88564 175.067 6.99071 175.702C1.54772 179.159 -4.49823 181.558 -10.8301 182.773C-12.7497 183.137 -13.4241 181.476 -13.3333 179.815C-13.2233 177.544 -12.5009 175.345 -11.2427 173.452C-9.98449 171.558 -8.23746 170.04 -6.18684 169.059C-1.93267 166.893 2.43823 166.465 6.78319 169.059C7.35367 169.418 7.81643 169.925 8.1224 170.526C8.42837 171.127 8.56616 171.799 8.52117 172.472Z" fill="#9DAB48"/>
<path d="M63.4881 122.766L63.3844 122.689C60.6996 125.115 62.8137 129.357 59.7139 131.771C56.3935 134.366 53.0083 136.571 48.6764 136.104C45.382 135.754 41.9838 134.534 41.2964 130.914C40.6479 127.515 44.4481 127.359 46.4844 126.14C50.1454 123.819 54.5204 122.898 58.806 123.545C60.3883 123.856 62.1263 124.505 63.4881 122.766Z" fill="#9DAB48"/>
<path d="M16.7313 144.317L14.2929 145.991C10.9596 146.082 8.24886 151.92 4.38379 147.068C4.5524 146.172 4.73398 145.277 4.91556 144.382C6.33239 142.549 7.17215 140.336 7.32799 138.024L10.4278 134.132C11.0525 134.047 11.6463 133.809 12.1558 133.437C12.6652 133.066 13.0742 132.573 13.3461 132.004C17.9039 129.658 23.1908 129.161 28.106 130.616C28.5729 132.627 27.4575 133.094 25.7325 133.38C23.3589 133.756 21.0373 134.456 18.6897 135.014C21.6599 136.078 24.3447 133.639 26.7182 135.728C27.7947 136.662 25.8751 137.83 25.512 138.972L20.6223 141.385C20.0127 141.138 19.7662 141.385 19.8181 142.021L19.455 142.28C18.8318 142.235 18.2133 142.416 17.7129 142.79C17.2125 143.164 16.8639 143.706 16.7313 144.317Z" fill="#9DAB48"/>
<path d="M29.5456 173.198C32.6195 178.712 36.8478 183.046 44.3963 186.679C36.6365 188.749 28.7054 190.112 20.7001 190.753C20.6854 188.639 21.1076 186.546 21.9401 184.603C22.7726 182.661 23.9975 180.911 25.5379 179.465C27.3667 177.584 28.2486 175.313 29.5456 173.198Z" fill="#CDE6E1"/>
<path d="M35.6804 89.7982C31.5429 96.2855 24.3445 94.9102 18.5469 95.3124C14.8245 95.5719 17.0554 90.6546 17.2499 87.9559C18.8896 87.0536 20.239 85.7037 21.1409 84.0635L23.2291 83.1294C27.5352 82.779 31.8542 82.4417 35.7452 84.9847L35.6804 89.7982ZM32.6065 88.1375C32.4378 88.0337 32.2822 87.865 32.1136 87.865C31.7272 87.8695 31.3416 87.8998 30.9593 87.9559C31.1149 88.0467 31.2835 88.2283 31.4521 88.2283C31.8385 88.2234 32.2241 88.193 32.6065 88.1375Z" fill="#9DAB48"/>
<path d="M54.8501 99.4643C54.7464 100.891 54.6297 102.319 54.5259 103.759C47.7166 104.978 40.7128 106.886 36.1863 99.101L38.7803 95.2087C42.6713 94.7027 45.7322 90.1616 50.2847 92.8603L51.5817 94.1577C51.7815 94.96 52.1625 95.7058 52.6954 96.3378C53.2282 96.9698 53.8988 97.4712 54.6556 97.8036L54.8501 99.4643Z" fill="#9DAB48"/>
<path d="M46.8865 84.7124C46.1047 82.7076 45.8144 80.5447 46.0401 78.4047C46.2658 76.2647 47.0008 74.2099 48.1835 72.4125C50.583 68.3904 53.0084 68.0401 55.7321 71.8287C58.0926 75.1112 58.0148 78.5495 56.1471 82.2083C53.9033 86.5418 50.3236 85.2703 46.8476 84.7253L46.8865 84.7124Z" fill="#9DAB48"/>
<path d="M4.31888 147.107C8.20989 151.959 10.8947 146.121 14.228 146.03C13.9297 148.339 15.2137 149.131 17.1333 150.259C20.5106 152.092 23.4844 154.587 25.8776 157.594C28.2708 160.601 30.0343 164.059 31.0631 167.762C29.0268 167.49 28.1578 168.553 28.0021 170.435C24.8115 169.475 24.7856 166.205 23.3718 163.948C19.2474 157.46 15.3304 150.817 6.09577 150.908C3.95572 150.908 1.60814 149.87 4.31888 147.107Z" fill="#CDE6E1"/>
<path d="M27.263 59.9441L29.3122 62.9022V63.4601L29.844 63.6158C31.2538 66.6622 31.8054 70.0357 31.4393 73.3726C28.2746 73.0223 27.5483 75.8767 25.9271 77.5634C23.3331 76.4736 22.1657 73.9824 20.5575 71.9325C20.5575 69.3376 20.4667 66.7427 20.4148 64.1478L24.5133 59.2823L27.263 59.9441ZM26.7312 70.6739L26.5626 70.0771C26.4357 70.2306 26.3389 70.4067 26.2772 70.5961C26.297 70.8036 26.3541 71.0058 26.4459 71.1929L26.7312 70.6739Z" fill="#9DAB48"/>
<path d="M18.4044 205.894C21.193 205.764 25.3174 203.714 26.355 206.828C27.652 210.798 22.3473 209.89 20.4407 211.784C19.8123 212.339 19.1542 212.859 18.4693 213.341C15.9531 213.64 12.6846 217.234 11.232 214.159C9.77935 211.084 13.2942 208.748 16.42 207.438C17.1451 207.011 17.8121 206.492 18.4044 205.894Z" fill="#9DAB48"/>
<path d="M25.888 77.5634C27.5092 75.8767 28.2355 73.0223 31.4002 73.3726C32.36 78.4846 38.1576 79.4187 40.2198 83.5706C39.1174 85.2313 37.3664 84.868 35.7971 84.9718C31.9061 82.3769 27.587 82.7661 23.281 83.1165C23.2161 80.807 29.8568 81.6893 25.888 77.5634Z" fill="#CDE6E1"/>
<path d="M66.8215 158.044C66.4324 161.625 66.0951 165.206 65.6282 168.774C65.4337 170.292 66.2249 172.666 63.7216 172.809C61.7243 172.965 60.8293 171.083 60.3235 169.527C59.8529 167.688 59.5405 165.813 59.3896 163.922C60.2846 159.951 61.8929 156.915 66.8215 158.044Z" fill="#9DAB48"/>
<path d="M35.7972 84.9718C37.3666 84.8421 39.1175 85.2313 40.22 83.5706C42.4767 83.7392 44.4741 85.4129 46.8736 84.7123C46.0954 88.2933 51.1148 89.3702 50.4144 92.9122C45.8619 90.2135 42.801 94.7546 38.91 95.2606C38.6117 92.6657 42.2692 92.6657 42.2563 89.8502H35.7712L35.7972 84.9718Z" fill="#E6F3F1"/>
<path d="M57.6129 108.845C61.1667 111.608 61.0629 114.787 58.6505 118.225C54.7476 116.521 51.2672 113.978 48.4561 110.778C50.8814 107.067 55.7971 115.189 57.6129 108.845Z" fill="#CDE6E1"/>
<path d="M25.5119 138.972C25.8751 137.83 27.7947 136.662 26.7181 135.728C24.3446 133.639 21.6598 136.078 18.6897 135.014C21.0373 134.457 23.3589 133.717 25.7324 133.38C27.4574 133.094 28.5729 132.627 28.1059 130.616C31.0372 130.266 31.2317 132.277 30.9723 134.249C30.5573 137.298 29.0138 139.322 25.5119 138.972Z" fill="#CDE6E1"/>
<path d="M76.8344 119.16C77.4959 121.352 79.9861 123.506 77.5867 125.777C77.3146 126.031 76.9784 126.206 76.6142 126.284C76.25 126.362 75.8715 126.338 75.5194 126.217C75.1674 126.096 74.855 125.881 74.6159 125.595C74.3769 125.309 74.2202 124.964 74.1626 124.596C78.9874 124.687 75.6541 120.833 76.8344 119.16Z" fill="#9DAB48"/>
<path d="M20.3758 64.0698C20.3758 66.6647 20.4666 69.2596 20.5185 71.8545C16.848 69.4023 16.9777 66.7945 20.3758 64.0698Z" fill="#CDE6E1"/>
<path d="M7.32795 138.024C7.1559 140.348 6.29317 142.566 4.85068 144.395C3.11269 141.268 4.56534 139.387 7.32795 138.024Z" fill="#CDE6E1"/>
<path d="M75.4467 108.546C76.8734 110.467 76.2768 112.568 75.9655 114.631C74.3572 113.165 75.0706 111.076 74.5518 109.325C74.7505 108.969 75.0669 108.694 75.4467 108.546Z" fill="#9DAB48"/>
<path d="M54.6556 97.8035C53.9022 97.4667 53.2358 96.9618 52.7075 96.3276C52.1792 95.6934 51.803 94.9467 51.6077 94.1447C54.1368 94.0538 56.9383 93.8203 54.6556 97.8035Z" fill="#E6F3F1"/>
<path d="M21.1929 84.0506C20.291 85.6908 18.9416 87.0407 17.3019 87.943C16.848 84.9069 18.1839 83.6354 21.1929 84.0506Z" fill="#CDE6E1"/>
<path d="M38.7803 95.2086L36.1863 99.101C33.709 95.533 36.1863 95.3384 38.7803 95.2086Z" fill="#E6F3F1"/>
<path d="M16.7312 144.317C16.8656 143.687 17.2295 143.13 17.7521 142.753C18.2747 142.377 18.9187 142.208 19.5587 142.28C19.5519 142.618 19.4666 142.95 19.3095 143.249C19.1524 143.549 18.9278 143.807 18.6535 144.005C18.3793 144.203 18.0628 144.334 17.7292 144.388C17.3955 144.442 17.0539 144.418 16.7312 144.317Z" fill="#CDE6E1"/>
<path d="M27.2628 59.944L24.5132 59.2823C25.9529 57.2453 26.7959 57.8162 27.2628 59.944Z" fill="#CDE6E1"/>
<path d="M13.346 132.004C13.0742 132.573 12.6651 133.066 12.1557 133.437C11.6462 133.809 11.0524 134.047 10.4277 134.132C10.5315 132.225 11.5432 131.537 13.346 132.004Z" fill="#CDE6E1"/>
<path d="M19.8569 142.021C19.8569 141.398 20.0515 141.138 20.6611 141.385C20.6036 141.558 20.4969 141.71 20.354 141.823C20.2111 141.936 20.0383 142.005 19.8569 142.021Z" fill="#CDE6E1"/>
<path d="M22.049 231.441L21.4653 231.947L21.9193 231.441H22.049Z" fill="#CDE6E1"/>
<path d="M29.805 63.6157L29.2732 63.46V62.9021C29.4273 62.9472 29.5625 63.0412 29.6584 63.1699C29.7543 63.2987 29.8058 63.4551 29.805 63.6157Z" fill="#CDE6E1"/>
<path d="M383.446 184.733C381.189 186.627 378.984 186.03 377.026 186.03C351.553 186.03 326.04 186.809 300.593 185.861C274.446 184.875 248.298 182.332 223.512 172.887C205.212 165.933 197.728 147.184 207.858 129.28C214.109 118.225 223.707 112.867 235.834 111.038C243.616 109.857 255.821 117.097 260.62 125.88C263.94 131.939 261.917 143.642 256.34 149.338C251.151 154.645 245.743 159.588 237.494 158.758C229.816 157.992 225.302 153.282 225.549 146.341C225.795 139.4 231.411 133.73 239.336 133.25C234.342 136.442 229.66 139.166 229.388 145.42C229.076 152.257 234.576 156.461 242.034 154.762C249.491 153.062 259.608 143.396 258 131.771C256.599 121.754 249.089 115.267 238.545 114.657C219.959 113.594 203.668 131.174 207.728 151.661C209.206 159.147 215.51 164.83 222.06 167.438C242.254 175.508 263.564 179.387 285.289 180.996C315.613 183.228 345.962 183.591 376.325 183.487C378.478 183.435 380.878 182.838 383.446 184.733Z" fill="#E6F3F1"/>
<path d="M378.141 170.461C351.812 176.753 327.221 177.454 302.552 171.667C293.849 169.63 285.354 158.939 285.185 149.792C284.951 137.882 290.814 129.682 301.67 126.737C310.113 124.44 322.02 129.565 326.715 137.518C332.967 148.093 326.715 159.575 314.458 160.094C312.526 160.172 310.567 160.094 308.635 160.094C301.423 159.951 299.18 155.54 303.213 148.845C305.729 151.025 303.097 156.799 309.556 156.461C318.803 155.981 323.913 154.048 325.21 148.183C326.507 142.319 321.67 135.027 314.627 132.095C307.805 129.254 301.099 129.046 295.315 134.34C290.023 139.192 287.61 145.718 289.361 152.504C290.175 155.716 291.766 158.679 293.994 161.132C296.222 163.584 299.018 165.451 302.137 166.568C309.985 169.535 318.265 171.201 326.65 171.499C340.126 172.108 353.77 173.004 367.143 169.747C370.79 168.794 374.647 169.045 378.141 170.461Z" fill="#E6F3F1"/>
<path d="M342.448 214.159C347.376 213.251 350.45 212.161 352.538 215.91C354.406 219.258 354.419 222.242 351.617 225.343C349.963 227.244 347.937 228.786 345.663 229.874C343.39 230.962 340.918 231.572 338.399 231.667C335.881 231.761 333.37 231.339 331.022 230.425C328.673 229.512 326.536 228.126 324.744 226.355C320.139 221.814 320.412 216.637 322.72 211.564C328.258 199.381 338.985 194.995 351.397 193.854C365.586 192.556 378.816 196.812 392.694 201.509C389.36 203.831 386.494 203.014 383.913 201.755C372.318 196.137 359.892 197.188 347.804 198.006C338.116 198.667 330.502 204.597 326.494 213.666C323.421 220.607 325.885 224.694 333.07 226.861C336.398 227.806 339.917 227.846 343.265 226.978C347.156 226.082 350.476 224.11 350.735 219.997C350.982 216.092 346.689 216.338 342.448 214.159Z" fill="#E6F3F1"/>
<path d="M121.205 153.321C116.017 151.777 112.256 147.82 107.833 145.031C107.869 144.818 107.926 144.61 108.001 144.408C109.649 141.177 106.108 134.807 111.192 134.612C113.986 134.55 116.756 135.14 119.282 136.336C121.808 137.532 124.021 139.301 125.744 141.502C127.846 144.252 128.468 147.003 124.227 148.495C121.892 149.312 120.66 150.739 121.205 153.321Z" fill="#9DAB48"/>
<path d="M139.259 129.383C139.129 131.265 138.766 133.548 136.47 134.443C135.469 134.897 134.342 134.994 133.278 134.718C132.214 134.441 131.276 133.809 130.621 132.925C128.105 129.708 125.692 126.438 123.28 123.091C121.581 120.742 123.124 119.653 125.044 118.654C131.114 115.527 139.233 121.443 139.259 129.383Z" fill="#9DAB48"/>
<path d="M89.1689 108.793L90.1287 106.068C91.0054 104.886 91.945 103.751 92.9432 102.669C94.772 100.865 96.1468 96.8304 99.3245 99.075C102.165 101.086 104.201 104.55 102.45 108.65C102.191 109.234 102.035 109.87 101.75 110.441C100.155 113.801 97.2622 116.175 93.8252 116.123C89.571 116.059 90.44 111.479 89.1689 108.793Z" fill="#9DAB48"/>
<path d="M77.5608 105.459L75.0964 104.291C74.3961 102.617 73.7087 100.956 72.5024 97.9463C76.3935 100.308 78.2482 102.072 77.5608 105.459Z" fill="#9DAB48"/>
<path d="M384.976 263.877C384.769 263.891 384.561 263.891 384.354 263.877C382.797 263.41 381.02 263.241 380.463 261.282C380.398 261.049 381.202 260.257 381.617 260.244C384.029 260.244 384.808 261.788 384.976 263.877Z" fill="#E6F3F1"/>
<path d="M82.8784 114.048C82.619 115.163 81.9965 115.994 80.8292 115.345C80.2973 115.076 79.8837 114.62 79.6682 114.064C79.4527 113.508 79.4504 112.892 79.6618 112.335L82.8784 114.048Z" fill="#9DAB48"/>
<path d="M279.024 249.891C273.979 246.906 269.297 243.87 264.381 241.288C245.795 231.545 227.261 222.294 205.51 220.659C192.929 219.712 181.113 220.335 169.583 224.928C159.207 229.054 149.389 240.653 150.05 250.591C150.517 257.584 153.838 261.477 159.129 264.175C169.415 269.456 180.128 269.586 190.828 265.213C197.106 262.619 199.531 257.117 200.789 251.097C201.982 245.362 199.116 241.081 194.771 237.682C189.466 233.517 183.889 235.087 179.025 238.019C174.162 240.951 169.376 244.869 169.83 251.772C170.063 255.392 172.099 257.39 175.666 257.312C179.752 257.234 184.654 258.856 186.548 253.03C186.976 251.733 186.016 249.929 188.13 248.93C190.491 253.043 189.103 256.209 185.757 258.739C181.425 262.035 176.444 262.631 171.879 259.816C165.121 255.625 164.278 250.864 168.182 243.818C174.2 232.933 187.702 228.327 196.535 234.14C204.524 239.329 206.249 254.055 200.037 261.555C191.308 272.09 179.816 272.959 167.612 271.026C163.007 270.299 158.403 269.132 154.46 266.07C142.956 257.169 143.902 242.417 154.123 230.87C161.26 222.938 171.241 218.149 181.892 217.545C205.497 215.677 228.649 217.895 249.958 229.936C259.284 235.216 269.141 239.563 277.559 246.361C278.363 247.01 279.582 247.335 279.024 249.891Z" fill="#E6F3F1"/>
<path d="M89.4542 258.687C90.6604 258.272 91.9055 257.922 93.0728 257.39C94.2401 256.858 95.4463 254.704 96.873 256.248C98.2997 257.792 96.7952 259.492 95.576 260.659C93.9883 262.302 92.07 263.588 89.9482 264.434C87.8264 265.279 85.5492 265.664 83.2675 265.564C80.4844 265.302 77.6772 265.607 75.0154 266.461C72.3536 267.315 69.8927 268.7 67.7813 270.533C66.8345 271.298 65.8358 272.713 64.448 271.947C62.8267 271.052 63.4623 269.261 63.6309 267.847C64.0004 264.489 65.4619 261.344 67.791 258.897C70.12 256.45 73.1878 254.836 76.5231 254.302C81.4128 253.601 86.4451 254.86 91.3219 253.368C92.1001 253.134 93.2155 253.199 93.3971 254.289C93.9288 257.286 90.9328 257.338 89.5061 258.739L80.0769 259.453C83.2156 259.31 86.4062 260.244 89.4542 258.687Z" fill="#9DAB48"/>
<path d="M154.214 195.112C155.511 202.235 151.062 210.202 144.382 213.199C141.282 214.587 140.647 212.887 140.011 210.604C137.819 202.598 144.123 195.787 154.278 195.242L154.214 195.112Z" fill="#9DAB48"/>
<path d="M95.9264 215.768C93.9039 216.068 91.8446 215.56 90.1936 214.353C88.4297 212.913 85.7579 211.758 86.2248 209.06C86.6398 206.672 89.3117 206.335 91.2442 205.634C93.8046 204.543 96.5865 204.072 99.3634 204.259C102.372 204.597 105.07 206.05 105.68 208.774C106.212 211.136 103.669 212.796 101.685 214.081C100.018 215.292 97.9831 215.888 95.9264 215.768Z" fill="#9DAB48"/>
<path d="M43.8516 240.601C41.5948 240.601 39.4029 240.225 39.1435 237.409C38.6896 232.505 44.9411 225.252 49.5195 225.109C54.0979 224.967 53.0474 228.846 53.1771 231.052C53.5013 235.787 48.4819 240.588 43.8516 240.601Z" fill="#9DAB48"/>
<path d="M81.3868 223.513C81.1922 225.68 80.5567 227.899 77.4958 228.028C73.2286 228.223 65.9784 222.748 66.6528 219.426C67.1586 216.832 68.8577 214.237 71.9835 213.899C75.8356 213.51 81.2441 218.985 81.3868 223.513Z" fill="#9DAB48"/>
<path d="M92.0354 240.523C86.1859 243.364 80.2846 246.05 73.6958 246.686C72.321 246.816 70.57 247.802 69.8048 245.907C69.1952 244.493 70.57 243.598 71.4649 242.755C76.4714 238.071 83.3325 238.343 89.3247 236.358C91.8538 235.515 91.0108 239.187 92.0095 240.601L92.0354 240.523Z" fill="#9DAB48"/>
<path d="M59.0136 223.877C59.163 223.782 59.3326 223.725 59.5085 223.709C59.6844 223.694 59.8615 223.72 60.0253 223.786C60.8424 227.678 58.417 230.753 56.9903 234.165C55.9268 230.442 56.0046 226.939 59.0136 223.877Z" fill="#9DAB48"/>
<path d="M94.1104 239.485L95.602 240.873C95.602 244.311 93.1895 246.063 90.7252 248.087C88.1312 244.701 93.4619 243.235 92.0222 240.471L91.9574 240.523L94.1104 239.485Z" fill="#9DAB48"/>
<path d="M40.0774 221.723V221.995C38.5729 225.044 35.914 224.733 32.5159 224.59C34.8894 222.125 37.0943 221.061 40.0774 221.723Z" fill="#9DAB48"/>
<path d="M29.4937 225.732C29.4937 225.628 29.5974 225.447 29.6623 225.434C29.8231 225.448 29.9806 225.487 30.1292 225.55C30.1292 225.654 30.0254 225.849 29.9735 225.849C29.8076 225.841 29.6447 225.801 29.4937 225.732Z" fill="#9DAB48"/>
<path d="M60.129 214.392C60.0382 214.25 59.8696 214.094 59.8955 213.964C59.9214 213.834 60.116 213.744 60.2327 213.627C60.3235 213.77 60.4921 213.925 60.4792 214.055C60.4662 214.185 60.2587 214.276 60.129 214.392Z" fill="#CDE6E1"/>
<path d="M104.344 161.534C103.955 166.594 101.983 170.487 97.2362 172.368C94.6422 173.419 91.283 174.042 89.2337 172.005C87.1844 169.968 90.0768 167.775 90.8679 165.686C91.6591 163.597 92.7226 161.794 93.3841 159.731C94.4088 156.513 95.3815 153.14 99.7394 153.983C103.877 154.775 103.514 158.68 104.344 161.534Z" fill="#9DAB48"/>
<path d="M32.6064 88.1376C32.224 88.1931 31.8384 88.2235 31.4521 88.2284C31.2835 88.2284 31.1149 88.0468 30.9592 87.9559C31.3415 87.8999 31.7272 87.8696 32.1136 87.8651C32.2951 87.8651 32.4378 88.0338 32.6064 88.1376Z" fill="#CDE6E1"/>
<path d="M26.731 70.6738L26.4457 71.1928C26.3539 71.0057 26.2968 70.8035 26.2771 70.596C26.3387 70.4066 26.4355 70.2305 26.5624 70.077L26.731 70.6738Z" fill="#CDE6E1"/>
<path d="M89.4542 258.687C86.4062 260.27 83.2156 259.336 80.0898 259.479L89.5191 258.765L89.4542 258.687Z" fill="#CDE6E1"/>
</g>
<defs>
<clipPath id="clip0_183_1675">
<rect width="476" height="377" fill="white"/>
</clipPath>
</defs>
</svg>
