<svg width="492" height="348" viewBox="0 0 492 348" fill="none" xmlns="http://www.w3.org/2000/svg">
<path d="M143.683 217.05C143.452 213.355 141.04 210.855 139.129 208.187C134.13 201.203 128.143 195.055 122.299 188.772C110.827 176.413 103.447 161.442 96.0276 146.518C94.5309 143.516 96.0276 142.537 98.8458 142.115C112.81 140.012 122.435 146.972 130.404 157.245C135.666 164.03 140.093 171.444 146.063 177.727C151.342 183.301 157.129 187.928 164.271 190.835C179.102 196.871 191.641 206.379 203.28 217.114C211.418 224.491 218.725 232.737 225.07 241.705C226.622 243.95 227.642 244.277 229.409 241.832C243.082 222.66 260.765 206.695 281.228 195.047C283.763 193.612 286.403 192.371 289.126 191.336C302.301 186.327 310.899 176.206 318.582 165.057C323.176 158.384 327.912 151.886 334.504 146.956C341.096 142.027 348.739 141.788 356.485 142.314C358.81 142.473 359.789 143.827 358.666 146.176C351.971 160.136 344.607 173.705 334.592 185.619C327.546 194.012 320.214 202.167 313.152 210.544C311.711 212.466 310.609 214.62 309.896 216.915C312.285 216.166 313.423 214.12 314.625 212.463C320.461 204.42 327.769 197.699 334.21 190.166C345.124 177.424 355.386 164.428 361.11 148.398C362.965 143.206 360.959 139.988 355.355 139.527C349.917 139.179 344.467 139.994 339.369 141.916C338.421 142.242 337.378 143.182 336.407 142.369C335.308 141.438 336.407 140.41 336.733 139.503C340.149 130.791 339.87 121.553 340.427 112.475C340.899 105.343 341.964 98.263 343.612 91.3082C344.695 86.6257 346.733 85.8772 350.61 88.3697C351.247 85.1843 352.266 82.3733 356.342 82.7077C358.037 82.8511 357.99 81.2664 358.523 80.3187C360.736 76.337 361.747 75.9389 365.624 78.0014C365.928 78.2327 366.279 78.394 366.651 78.4739C367.024 78.5537 367.41 78.5501 367.782 78.4632C372.63 77.1413 374.039 78.2164 374.087 83.3846C374.199 94.39 374.215 105.403 374.23 116.409C374.23 121.051 374.119 125.694 374.119 130.337C374.025 133.655 374.773 136.942 376.292 139.893C378.1 143.206 378.044 146.893 376.937 150.357C373.705 160.414 370.059 170.313 365.927 180.076C362.496 188.191 359.916 196.656 355.96 204.603C349.169 218.213 338.771 228.263 326.129 236.337C312.404 245.097 298.106 252.925 284.811 262.433C273.068 270.906 268.331 282.7 266.954 296.405C266.484 301.128 266.389 305.961 267.527 310.66C268.18 313.351 267.654 314.761 264.295 314.745C239.631 314.623 214.951 314.623 190.256 314.745C185.917 314.745 186.785 312.396 187.135 309.855C188.91 296.716 187.071 284.197 179.97 272.842C176.109 266.662 170.162 262.449 164.127 258.587C151.851 250.727 139.448 243.058 127.06 235.406C111.592 225.85 101.083 212.312 94.3239 195.589C88.6714 181.581 83.2897 167.486 78.4015 153.2C76.6581 148.151 76.1883 143.245 79.0146 138.252C80.5192 135.609 80.4635 132.391 80.4555 129.317C80.4555 114.33 80.4555 99.3406 80.4555 84.3482C80.4555 82.4927 80.3361 80.5974 81.5144 78.9888C82.1433 78.1288 83.4887 76.8546 83.9982 77.3962C87.4056 81.123 91.426 73.7967 94.5946 78.1368C95.2375 78.9655 95.7725 79.8726 96.1868 80.8363C96.6645 82.0786 97.2297 82.9705 98.7344 82.7555C98.9891 82.7555 99.2678 82.8113 99.5305 82.7555C103.185 82.1662 102.325 88.5608 107.707 87.3026C110.987 86.5063 111.448 92.877 112.181 96.3809C113.845 104.344 114.298 112.403 114.569 120.462C114.714 126.964 115.836 133.407 117.897 139.574C118.183 140.371 118.964 141.334 118.271 142.186C117.371 143.293 116.305 142.361 115.373 142.043C110.334 140.323 105.239 139.168 99.825 139.503C93.4561 139.893 90.9643 143.484 93.5039 149.329C98.0597 159.905 103.871 169.894 110.811 179.081C121.01 192.459 133.66 203.544 143.683 217.05ZM146.008 219.519L146.127 219.336H145.96L146.008 219.519Z" fill="#3C9DC5"/>
<path d="M187.326 46.984C203.639 46.6575 214.856 54.4218 224.099 65.8492C227.283 69.8309 227.283 69.9265 230.388 65.8492C251.382 38.2481 284.126 44.4357 299.977 59.8528C311.122 70.691 314.068 84.1093 310.549 98.9928C305.685 119.61 293.552 135.871 278.856 150.42C266.118 163.05 251.629 173.61 236.94 183.867C234.127 185.862 231.538 188.155 229.218 190.707C228.071 191.941 226.965 192.61 225.603 191.018C220.166 184.647 212.866 180.729 206.274 175.832C191.49 164.786 176.953 153.47 165.218 139.049C154.646 126.052 146.063 112.029 143.245 95.1226C140.061 75.8274 150.41 57.6947 168.793 50.6232C175.05 48.1864 181.451 46.6814 187.326 46.984ZM301.529 94.8758C304.244 83.4563 301.083 73.948 293.257 66.0165C284.564 57.2567 267.662 52.3115 257.217 55.7915C279.118 61.2145 297.278 70.1495 301.529 94.8678V94.8758Z" fill="#E7443B"/>
<path d="M146.008 219.519L145.96 219.304L146.128 219.336L146.008 219.519Z" fill="white"/>
<path d="M301.529 94.8678C297.278 70.1813 279.118 61.2145 257.217 55.7835C267.662 52.3035 284.564 57.2089 293.257 66.0085C301.083 73.94 304.244 83.4483 301.529 94.8678Z" fill="white"/>
</svg>
