<svg width="74" height="69" viewBox="0 0 74 69" fill="none" xmlns="http://www.w3.org/2000/svg">
<g clip-path="url(#clip0_238_902)">
<path d="M37.4379 59.7959C39.4986 61.1212 41.2429 62.4427 43.168 63.4189C44.609 64.1487 46.2761 64.4381 47.8471 64.9122C48.2976 65.0172 48.7386 65.1589 49.1656 65.3359C47.2142 65.3938 45.2815 65.5225 43.5561 64.2589C42.149 63.2322 40.6609 62.312 39.1765 61.3974C37.9314 60.6302 36.7391 60.6172 35.2924 61.2462C33.1073 62.1982 30.7716 62.8757 28.2927 62.1795C28.1043 62.1254 27.8237 62.2784 27.6014 62.3662C25.989 63.0475 24.7759 64.2327 23.4573 65.3527C22.4175 66.2449 21.1027 66.8571 19.8425 67.4526C18.5824 68.048 17.2054 68.4923 15.8774 69.0019L15.7757 68.7349C16.4971 68.4531 17.2337 68.203 17.9363 67.8838C19.6108 67.1222 21.276 66.3438 22.9261 65.53C23.1748 65.4087 23.3594 65.0914 23.4912 64.8244C24.3634 63.1259 25.8967 62.2728 27.5938 61.6251C27.7701 61.5605 27.9603 61.5424 28.1458 61.5729C30.9543 62.0974 33.5236 61.2574 36.0572 60.2047C36.2042 60.1384 36.3359 60.0429 36.4441 59.9241C36.5523 59.8053 36.6348 59.6657 36.6863 59.514C37.2307 56.9512 38.6246 54.8233 40.1749 52.7943C42.1961 50.1419 44.3811 47.6351 47.054 45.5856C47.8659 44.964 47.5645 44.0513 47.5965 43.2505C47.6418 42.3641 47.6097 41.4753 47.5005 40.5944C47.3121 39.2878 47.0239 37.9812 46.796 36.6745C46.7775 36.4357 46.7826 36.1957 46.8111 35.9578C47.0274 36.1267 47.2285 36.3141 47.4119 36.5178C47.5381 36.6783 47.5796 36.906 47.7322 37.2905L52.8859 31.017C51.379 30.0239 50.0095 29.0496 48.5685 28.2022C47.184 27.3865 46.9015 26.0033 47.9883 24.902C50.132 22.7312 50.682 20.0489 50.3166 17.1651C50.1282 15.6027 49.7119 14.0665 49.4086 12.5192C49.3615 12.2765 49.3597 12.0245 49.337 11.7725L49.6064 11.6736C49.7647 11.9032 49.9832 12.1122 50.0736 12.3661C51.1755 15.6942 51.3639 19.0746 50.2261 22.4027C49.8852 23.4032 48.966 24.2189 48.2765 25.0906C47.6907 25.8372 47.7416 26.7257 48.5158 27.2894C49.3389 27.8886 50.2111 28.4355 51.0474 29.0066L53.2042 30.4719C54.18 29.3053 55.2424 28.0659 56.2727 26.8022C57.8437 24.8722 59.4298 22.9552 60.9348 20.9766C61.8766 19.7447 63.2084 19.1604 64.5345 18.5501C67.3958 17.2435 70.2778 15.963 73.1542 14.6788C73.4308 14.5826 73.7125 14.5016 73.9981 14.4361C73.4706 16.0787 73.0129 17.5402 72.5326 18.9943C71.7791 21.2883 71.101 23.6197 70.1874 25.8521C69.6845 27.0785 68.8406 28.1965 68.0136 29.2605C65.0921 33.0123 62.0952 36.7063 59.1604 40.46C58.7385 40.9994 58.5407 41.7087 58.2393 42.3378L57.9699 41.9495L57.0959 43.0452C58.4314 43.7769 59.8103 44.2958 60.8934 45.175C64.0297 47.7247 64.8039 51.1181 63.8432 54.9017C63.0181 58.1514 60.6504 60.4119 58.2883 62.6406C58.8107 61.9636 59.3312 61.2854 59.8498 60.606C60.5336 59.7175 61.2249 58.8365 61.8955 57.9386C63.5682 55.6987 63.9675 53.0855 63.5041 50.5003C62.9824 47.5493 61.2437 45.3 58.2299 44.2603C56.3217 43.6033 54.4022 43.1759 52.3641 43.5529C50.7581 43.8181 49.2983 44.6372 48.2426 45.8656C47.687 46.5002 46.7734 46.8101 46.1235 47.3831C43.0286 50.1046 40.4461 53.2461 38.5549 56.9027C38.0633 57.8509 37.777 58.9018 37.4379 59.7959ZM65.7231 23.1848C66.0829 22.9981 66.5274 22.8824 66.7874 22.6024C68.1059 21.1913 69.336 19.7167 70.647 18.3093C71.1537 17.7642 70.826 17.376 70.4963 17.0437C70.2759 16.8253 69.7711 16.6331 69.53 16.7376C67.3675 17.6877 65.2371 18.7125 63.0897 19.7036C62.5378 19.9575 62.1705 20.3793 62.4549 20.9262C62.6207 21.2454 63.15 21.3779 63.5117 21.5982C63.8112 21.7849 64.3198 21.9304 64.3669 22.1582C64.5176 22.9421 64.9753 23.1008 65.7231 23.1848V23.1848Z" fill="white"/>
<path d="M21.9843 3.67537C21.7144 3.63895 21.4488 3.57643 21.1913 3.48872C20.4319 3.11787 19.5933 2.9347 18.747 2.95485C17.9007 2.97501 17.0719 3.19789 16.3314 3.60444C12.4586 5.59608 11.2662 9.41324 11.4885 13.0549C11.6053 14.9924 12.824 16.3681 14.1256 17.6337C14.7644 18.2198 15.2008 18.9905 15.3726 19.8362C15.9867 22.8862 17.1621 25.6413 19.6391 27.7039C19.7764 27.852 19.8976 28.0141 20.0008 28.1873C19.5939 28.4878 19.2341 28.779 18.8499 29.031C13.3024 32.6559 9.87794 37.6471 8.86641 44.2026C8.8438 44.3538 8.82685 44.5087 8.81931 44.6636C8.76092 46.0523 8.76092 46.043 10.1379 46.1046C12.3152 46.1666 14.4126 46.9315 16.111 48.2829C16.3959 48.4721 16.6972 48.6358 17.0114 48.7719L16.6347 49.2274C16.1072 48.9493 15.5685 48.6917 15.0561 48.3893C12.9483 47.1461 10.6973 46.4592 8.24856 46.9408C4.39269 47.6875 -0.297652 51.4729 0.681857 56.4604C1.17349 58.9635 2.25473 61.1268 4.19491 62.7657C5.95237 64.244 7.88878 65.5152 9.75173 66.8722C10.0267 67.0719 10.3281 67.2455 10.703 67.4732C10.5429 67.5105 10.4619 67.5572 10.4148 67.5348C6.687 65.7056 3.17207 63.531 1.27898 59.7064C-1.19993 54.6983 -0.0527726 50.8065 4.21562 47.8256C5.1989 47.1387 6.40445 46.7728 7.46684 46.1849C7.78141 46.0094 8.16003 45.5876 8.16568 45.274C8.2674 39.5006 11.1607 35.0787 15.1221 31.2112C16.3314 30.0296 17.7592 29.0777 19.155 27.9782C16.5009 25.953 15.6326 22.7723 14.7322 19.5954C14.5773 19.1009 14.2769 18.6634 13.8694 18.3392C11.5958 16.5846 10.7331 14.2327 10.8744 11.4833C11.0986 7.09681 13.5831 3.73324 17.5539 2.66928C18.6257 2.38183 19.884 2.69168 21.0368 2.85594C21.374 2.90447 21.6415 3.41593 21.941 3.70525L21.9843 3.67537Z" fill="white"/>
<path d="M44.1381 61.0092C41.5877 56.1561 48.5139 45.9048 54.4531 45.4606C51.5937 47.0733 48.6835 48.589 46.8148 51.4598C44.9462 54.3306 44.3265 57.487 44.1381 61.0092Z" fill="white"/>
<path d="M11.7692 49.7687C14.3743 49.2087 22.0653 59.04 21.5643 62.1815C19.7032 56.9942 16.1732 53.0949 11.7692 49.7687Z" fill="white"/>
<path d="M19.398 51.092C19.7586 51.1205 20.1156 51.183 20.4642 51.2787C22.1556 51.8831 23.6302 52.9671 24.7043 54.3959C25.9005 55.9974 26.8574 57.7781 27.9066 59.4898C27.9567 59.5979 27.9845 59.7148 27.9883 59.8338C27.9922 59.9527 27.9721 60.0711 27.9292 60.1823C25.7159 56.5928 23.5741 52.9549 19.2134 51.4485L19.398 51.092Z" fill="white"/>
<path d="M43.5542 4.90728C40.7437 2.82044 37.9163 0.800796 34.2338 0.14376C36.2248 -0.7186 42.9288 2.70284 43.5542 4.90728Z" fill="white"/>
<path d="M21.9542 3.70519L25.5331 1.79565L25.7328 2.09617C22.6474 3.85822 20.0083 6.10185 18.1379 9.16678L17.7913 8.92414C18.0079 8.44816 18.136 7.8975 18.4581 7.50925C19.3491 6.4341 20.3191 5.42429 21.2629 4.39394C21.4927 4.14382 21.7488 3.91424 21.9918 3.67531L21.9542 3.70519Z" fill="white"/>
<path d="M50.925 2.13916C52.4319 4.2148 53.2551 6.46401 52.4998 8.98576C52.1833 10.0422 51.7802 11.1865 50.3693 11.5617C53.031 8.52846 52.7559 5.39261 50.925 2.13916Z" fill="white"/>
<path d="M19.4809 43.9767C20.4736 44.8708 20.3286 45.9385 20.2984 46.9371C20.2344 48.9436 19.5789 50.3996 18.5428 50.8289C18.8668 49.7089 19.2963 48.6525 19.447 47.5642C19.5977 46.476 19.4809 45.3374 19.4809 43.9767Z" fill="white"/>
<path d="M20.5338 40.0102C19.9876 39.1068 20.8823 36.1427 21.9165 35.228C22.1368 35.5752 21.2308 38.769 20.5338 40.0102Z" fill="white"/>
</g>
<defs>
<clipPath id="clip0_238_902">
<rect width="74" height="69" fill="white"/>
</clipPath>
</defs>
</svg>
