<svg width="67" height="65" viewBox="0 0 67 65" fill="none" xmlns="http://www.w3.org/2000/svg">
<path d="M48.6068 27.9534L50.1385 26.091C52.0106 23.8336 53.8826 21.5727 55.7547 19.3085C55.913 19.1106 56.1098 18.9465 56.3333 18.826C59.07 17.4715 61.8049 16.117 64.5619 14.8167C65.2886 14.4781 66.0936 14.2868 66.999 13.9804C66.9874 14.3301 66.951 14.6786 66.8901 15.0233C66.0681 18.0844 65.1882 21.1438 64.3662 24.2134C63.9986 25.5679 63.0626 26.5532 62.2235 27.6114C59.5005 31.0382 56.8167 34.4938 54.0698 37.9003C53.578 38.5098 53.6427 39.0533 53.6767 39.7458C53.7209 40.6042 54.0545 41.0207 54.754 41.4981C58.4828 44.0378 59.9192 49.4557 57.38 53.768C54.4323 58.7693 49.9564 60.9941 44.2125 60.8366C43.029 60.8158 41.8481 60.7169 40.6777 60.5403C39.3316 60.3236 38.2134 59.5939 37.2025 58.6948C36.0333 57.6536 34.5476 57.3522 33.0788 57.0373C32.8548 57.0237 32.6312 57.0711 32.4321 57.1744C30.2758 58.043 28.0991 58.6982 25.7488 57.9346C25.6395 57.9146 25.5272 57.9166 25.4187 57.9408C25.3102 57.9649 25.2078 58.0106 25.1175 58.0752C24.2172 58.6999 23.276 59.2857 22.4608 60.0104C19.554 62.594 16.1639 64.045 12.2887 64.001C10.8976 63.9532 9.54222 63.551 8.35223 62.8327C6.68098 61.8169 5.01144 60.6199 3.76736 59.1435C1.49535 56.4464 0.0878963 53.2702 0.00110043 49.6537C-0.0312353 48.2993 0.310843 47.043 1.24858 45.9848C2.70682 44.3066 4.66745 43.1376 6.84266 42.6494C7.07922 42.5952 7.41619 42.2753 7.4264 42.0653C7.63233 38.0019 9.12828 34.4346 11.7815 31.3802C13.2911 29.6448 14.9606 28.0448 16.5859 26.3551C14.7139 24.5876 13.6706 22.2206 13.2111 19.6353C13.0542 18.6045 12.6022 17.6405 11.9092 16.8586C10.638 15.4284 9.88073 13.6184 9.75628 11.7133C9.63034 9.65621 10.3775 7.80058 11.5075 6.0821C12.7839 4.14012 14.5709 3.10226 16.8906 3.08533C18.0053 3.07686 19.12 3.27496 20.2365 3.33591C20.5042 3.32525 20.7639 3.24149 20.987 3.0938C24.3278 1.10781 27.8711 -0.0993678 31.8178 0.444114C32.747 0.572788 33.6626 0.95204 34.5288 1.34314C35.1364 1.61404 35.5687 1.74948 36.2307 1.34314C38.8108 -0.217884 41.4708 -0.434603 44.3249 0.7895C46.9866 1.93064 48.6715 5.97035 48.0197 8.37962C47.6793 9.63589 47.0768 10.8295 46.5033 12.0096C46.2718 12.4083 46.1983 12.8787 46.2973 13.3285C46.6769 15.1909 47.1381 17.0703 46.796 19.0088C46.5101 20.6359 45.9059 22.0767 44.5921 23.1738C43.7956 23.8409 43.9539 24.5605 44.7776 25.1141C46.0642 25.9962 47.2964 26.9782 48.6068 27.9534ZM62.9434 16.8044C61.1258 17.7204 59.2844 18.6414 57.4515 19.5794C57.3272 19.6437 57.1622 19.8689 57.1945 19.9485C57.2863 20.1058 57.4224 20.2329 57.5859 20.3142C58.0301 20.5766 58.5424 20.7561 58.9304 21.0829C59.7048 21.7313 60.3498 21.7432 61.0033 21.0016C61.696 20.2177 62.3512 19.4016 63.0847 18.6584C63.6974 18.0302 63.7808 17.4935 62.9434 16.8044V16.8044Z" fill="white"/>
</svg>
