<svg xmlns="http://www.w3.org/2000/svg" viewBox="0 0 392.85 369.66"><defs><style>.cls-1{fill:#fff;}</style></defs><g id="Calque_1" data-name="Calque 1"><path class="cls-1" d="M579.68,1500.06c10.94,7.1,20.2,14.18,30.42,19.41,7.65,3.91,16.5,5.46,24.84,8a44.63,44.63,0,0,1,7,2.27c-10.36.31-20.62,1-29.78-5.77-7.47-5.5-15.37-10.43-23.25-15.33-6.61-4.11-12.94-4.18-20.62-.81-11.6,5.1-24,8.73-37.16,5-1-.29-2.49.53-3.67,1-8.56,3.65-15,10-22,16-5.52,4.78-12.5,8.06-19.19,11.25s-14,5.57-21.05,8.3l-.54-1.43c3.83-1.51,7.74-2.85,11.47-4.56,8.89-4.08,17.73-8.25,26.49-12.61,1.32-.65,2.3-2.35,3-3.78,4.63-9.1,12.77-13.67,21.78-17.14a5.74,5.74,0,0,1,2.93-.28c14.91,2.81,28.55-1.69,42-7.33a6.26,6.26,0,0,0,3.34-3.7c2.89-13.73,10.29-25.13,18.52-36,10.73-14.21,22.33-27.64,36.52-38.62,4.31-3.33,2.71-8.22,2.88-12.51a82.48,82.48,0,0,0-.51-14.23c-1-7-2.53-14-3.74-21a19.78,19.78,0,0,1,.08-3.84,25.09,25.09,0,0,1,3.19,3c.67.86.89,2.08,1.7,4.14l27.36-33.61c-8-5.32-15.27-10.54-22.92-15.08-7.35-4.37-8.85-11.78-3.08-17.68,11.38-11.63,14.3-26,12.36-41.45-1-8.37-3.21-16.6-4.82-24.89-.25-1.3-.26-2.65-.38-4l1.43-.53c.84,1.23,2,2.35,2.48,3.71,5.85,17.83,6.85,35.94.81,53.77-1.81,5.36-6.69,9.73-10.35,14.4-3.11,4-2.84,8.76,1.27,11.78,4.37,3.21,9,6.14,13.44,9.2l11.45,7.85c5.18-6.25,10.82-12.89,16.29-19.66,8.34-10.34,16.76-20.61,24.75-31.21,5-6.6,12.07-9.73,19.11-13,15.19-7,30.49-13.86,45.76-20.74a42.35,42.35,0,0,1,4.48-1.3c-2.8,8.8-5.23,16.63-7.78,24.42-4,12.29-7.6,24.78-12.45,36.74-2.67,6.57-7.15,12.56-11.54,18.26-15.51,20.1-31.42,39.89-47,60-2.24,2.89-3.29,6.69-4.89,10.06l-1.43-2.08-4.64,5.87c7.09,3.92,14.41,6.7,20.16,11.41,16.65,13.66,20.76,31.84,15.66,52.11-4.38,17.41-16.95,29.52-29.49,41.46q4.16-5.44,8.29-10.9c3.63-4.76,7.3-9.48,10.86-14.29,8.88-12,11-26,8.54-39.85-2.77-15.81-12-27.86-28-33.43-10.13-3.52-20.32-5.81-31.14-3.79a36.65,36.65,0,0,0-21.88,12.39c-2.95,3.4-7.8,5.06-11.25,8.13-16.43,14.58-30.14,31.41-40.18,51C583,1489.64,581.48,1495.27,579.68,1500.06Zm150.16-196.14c1.91-1,4.27-1.62,5.65-3.12,7-7.56,13.53-15.46,20.49-23,2.69-2.92.95-5-.8-6.78-1.17-1.17-3.85-2.2-5.13-1.64-11.48,5.09-22.79,10.58-34.19,15.89-2.93,1.36-4.88,3.62-3.37,6.55.88,1.71,3.69,2.42,5.61,3.6,1.59,1,4.29,1.78,4.54,3C723.44,1302.62,725.87,1303.47,729.84,1303.92Z" transform="translate(-380.93 -1179.71)"/><path class="cls-1" d="M497.64,1199.4a22.15,22.15,0,0,1-4.21-1,27.84,27.84,0,0,0-25.8.62c-20.56,10.67-26.89,31.12-25.71,50.63.62,10.38,7.09,17.75,14,24.53a22,22,0,0,1,6.62,11.8c3.26,16.34,9.5,31.1,22.65,42.15a15.4,15.4,0,0,1,1.92,2.59c-2.16,1.61-4.07,3.17-6.11,4.52-29.45,19.42-47.63,46.16-53,81.28-.12.81-.21,1.64-.25,2.47-.31,7.44-.31,7.39,7,7.72a53.08,53.08,0,0,1,31.71,11.67,30.62,30.62,0,0,0,4.78,2.62l-2,2.44c-2.8-1.49-5.66-2.87-8.38-4.49-11.19-6.66-23.14-10.34-36.14-7.76-20.47,4-45.37,24.28-40.17,51,2.61,13.41,8.35,25,18.65,33.78,9.33,7.92,19.61,14.73,29.5,22,1.46,1.07,3.06,2,5.05,3.22-.85.2-1.28.45-1.53.33-19.79-9.8-38.45-21.45-48.5-41.94-13.16-26.83-7.07-47.68,15.59-63.65,5.22-3.68,11.62-5.64,17.26-8.79,1.67-.94,3.68-3.2,3.71-4.88.54-30.93,15.9-54.62,36.93-75.34,6.42-6.33,14-11.43,21.41-17.32-14.09-10.85-18.7-27.89-23.48-44.91a13.92,13.92,0,0,0-4.58-6.73c-12.07-9.4-16.65-22-15.9-36.73,1.19-23.5,14.38-41.52,35.46-47.22,5.69-1.54,12.37.12,18.49,1,1.79.26,3.21,3,4.8,4.55Z" transform="translate(-380.93 -1179.71)"/><path class="cls-1" d="M615.25,1506.56c-13.54-26,23.23-80.92,54.76-83.3-15.18,8.64-30.63,16.76-40.55,32.14S616.25,1487.69,615.25,1506.56Z" transform="translate(-380.93 -1179.71)"/><path class="cls-1" d="M443.41,1446.34c13.83-3,54.66,49.67,52,66.5C485.53,1485.05,466.79,1464.16,443.41,1446.34Z" transform="translate(-380.93 -1179.71)"/><path class="cls-1" d="M483.91,1453.43a30.18,30.18,0,0,1,5.66,1,48.65,48.65,0,0,1,22.51,16.7c6.35,8.58,11.43,18.12,17,27.29a4.79,4.79,0,0,1,.12,3.71c-11.75-19.23-23.12-38.72-46.27-46.79Z" transform="translate(-380.93 -1179.71)"/><path class="cls-1" d="M612.15,1206c-14.92-11.18-29.93-22-49.48-25.52C573.24,1175.86,608.83,1194.19,612.15,1206Z" transform="translate(-380.93 -1179.71)"/><path class="cls-1" d="M497.48,1199.56l19-10.23,1.06,1.61c-16.38,9.44-30.39,21.46-40.32,37.88l-1.84-1.3c1.15-2.55,1.83-5.5,3.54-7.58,4.73-5.76,9.88-11.17,14.89-16.69,1.22-1.34,2.58-2.57,3.87-3.85Z" transform="translate(-380.93 -1179.71)"/><path class="cls-1" d="M651.28,1191.17c8,11.12,12.37,23.17,8.36,36.68-1.68,5.66-3.82,11.79-11.31,13.8C662.46,1225.4,661,1208.6,651.28,1191.17Z" transform="translate(-380.93 -1179.71)"/><path class="cls-1" d="M484.35,1415.31c5.27,4.79,4.5,10.51,4.34,15.86-.34,10.75-3.82,18.55-9.32,20.85,1.72-6,4-11.66,4.8-17.49S484.35,1422.6,484.35,1415.31Z" transform="translate(-380.93 -1179.71)"/><path class="cls-1" d="M489.94,1394.06c-2.9-4.84,1.85-20.72,7.34-25.62C498.45,1370.3,493.64,1387.41,489.94,1394.06Z" transform="translate(-380.93 -1179.71)"/></g></svg>