<svg width="77" height="46" viewBox="0 0 77 46" fill="none" xmlns="http://www.w3.org/2000/svg">
<path d="M48.8795 5.69354H28.3662V40.863H48.8795V5.69354Z" fill="#FF5F00"/>
<path d="M29.6687 23.2782C29.6687 16.1325 33.1852 9.79449 38.5903 5.69346C34.6179 2.71088 29.6035 0.908905 24.1333 0.908905C11.1741 0.908905 0.689453 10.913 0.689453 23.2782C0.689453 35.6434 11.1741 45.6475 24.1333 45.6475C29.6035 45.6475 34.6179 43.8455 38.5903 40.863C33.1852 36.8241 29.6687 30.4239 29.6687 23.2782Z" fill="#EB001B"/>
<path d="M76.5564 23.2782C76.5564 35.6434 66.0718 45.6475 53.1126 45.6475C47.6423 45.6475 42.6279 43.8455 38.6555 40.863C44.1257 36.7619 47.5772 30.4239 47.5772 23.2782C47.5772 16.1325 44.0606 9.79449 38.6555 5.69346C42.6279 2.71088 47.6423 0.908905 53.1126 0.908905C66.0718 0.908905 76.5564 10.9751 76.5564 23.2782Z" fill="#F79E1B"/>
</svg>
