<svg width="78" height="75" viewBox="0 0 78 75" fill="none" xmlns="http://www.w3.org/2000/svg">
<g clip-path="url(#clip0_405_693)">
<path d="M50.7507 40.3998L55.5025 34.2929C54.1165 33.2646 52.8177 32.2284 51.4476 31.2848C49.937 30.2407 49.5826 29.1711 50.3785 27.5143C50.6481 26.9511 50.9626 26.4103 51.3189 25.897C53.0771 23.3971 53.378 20.7003 52.4633 17.832C52.1525 16.8628 51.7981 15.9074 51.4892 14.9382C51.3359 14.5414 51.2502 14.1219 51.2358 13.6971C51.2358 13.4331 51.4773 13.0273 51.6931 12.9643C51.909 12.9012 52.396 13.1041 52.4851 13.313C54.1106 16.9554 55.548 20.6589 53.8334 24.6658C53.4196 25.6291 52.7128 26.5156 51.9802 27.2858C51.018 28.2964 51.0457 29.0213 52.2257 29.7266C52.9853 30.1914 53.7128 30.7061 54.4036 31.2671C55.0966 31.8167 55.7341 32.4353 56.5815 33.1898C56.6533 33.0046 56.7449 32.8276 56.8547 32.6618C59.5104 29.439 62.1721 26.2214 64.8396 23.0091C65.0327 22.7446 65.2779 22.522 65.5603 22.355C68.8687 20.7298 72.1791 19.1105 75.5113 17.5346C76.2439 17.1879 77.0615 17.0145 78.006 16.7092C77.9664 17.1938 77.9901 17.5464 77.901 17.8714C76.9111 21.4725 75.8914 25.0677 74.9153 28.6727C74.4857 30.2604 73.377 31.3892 72.4009 32.6126C69.233 36.6076 66.0929 40.6204 62.9152 44.6076C62.4479 45.1986 62.4202 45.7305 62.446 46.4672C62.4855 47.6689 63.0261 48.2402 63.9586 48.8903C68.249 51.924 69.5677 58.3303 66.9146 62.8297C63.5943 68.4558 58.7059 71.3792 52.0792 71.198C50.4953 71.1547 48.8936 71.1488 47.369 70.804C46.1243 70.5266 44.9562 69.9797 43.9478 69.2025C42.4133 68.0016 40.6016 67.2012 38.6773 66.874C38.3556 66.8324 38.0287 66.878 37.7309 67.006C35.2145 68.0087 32.6802 68.7632 29.942 67.8826C29.7985 67.8576 29.6513 67.8622 29.5097 67.8961C29.368 67.93 29.2348 67.9924 29.1184 68.0796C28.0235 68.903 26.9642 69.7718 25.8872 70.6208C25.4536 70.9616 25.0318 71.3221 24.5705 71.6235C22.3396 73.0964 19.857 74.1512 17.2449 74.736C14.2454 75.4019 11.4418 74.7617 8.91351 73.1955C3.65886 69.9372 0.795929 65.1877 0.065347 59.0316C-0.346472 55.5448 1.38594 53.3975 4.02514 51.7428C5.22694 50.9902 6.68217 50.6416 8.00474 50.0703C8.26609 49.956 8.63039 49.6645 8.63633 49.4438C8.7967 44.6844 10.5707 40.5515 13.6474 36.9859C15.4036 34.9529 17.3578 33.0873 19.2664 31.1016C17.0885 29.0529 15.8709 26.2713 15.3304 23.2218C15.1511 22.0523 14.6385 20.9584 13.8534 20.0699C12.3664 18.3422 11.3844 16.2659 11.325 13.9887C11.2518 11.2583 12.21 8.77813 14.0454 6.68998C16.3223 4.09949 19.3278 3.5026 22.5075 4.04631C23.6954 4.2433 24.4636 3.96554 25.3684 3.45532C25.9661 3.10786 26.6099 2.84591 27.281 2.67719C27.8096 2.55111 28.3937 2.65158 28.952 2.65158C28.9877 2.78357 29.0253 2.91358 29.0609 3.04557C28.5818 3.40804 28.1244 3.80006 27.6215 4.12313C26.4336 4.88747 25.0833 5.46664 24.0577 6.39843C22.6579 7.66511 21.5136 9.20561 20.2148 10.5865C19.9217 10.8978 19.4466 11.0337 19.0545 11.2504C18.9951 10.8013 18.7318 10.228 18.914 9.92267C19.6414 8.76127 20.4298 7.6388 21.276 6.55996C21.474 6.29205 21.8581 6.15612 22.0679 5.87639C17.3914 5.2854 14.1602 7.40113 13.2495 12.129C12.7407 14.7786 13.9801 16.9219 15.3502 18.9982C16.0312 20.0285 16.6569 20.9091 16.8529 22.3038C17.2366 24.9897 18.39 27.5086 20.1752 29.5591C20.6761 30.1403 21.0622 30.8179 21.476 31.4109C16.2629 36.1979 11.2736 40.8903 10.3687 48.2422C10.3093 48.7268 10.2579 49.2114 10.2242 49.5128C12.1823 50.0269 14.0494 50.4978 15.9006 51.0119C16.8252 51.268 17.4152 51.8196 17.136 53.0902C16.2748 52.8361 15.3838 52.5977 14.5087 52.3141C11.0993 51.201 7.80279 51.2818 4.7577 53.3542C1.8532 55.3241 1.03154 57.0971 1.88289 60.5918C3.25298 66.2219 6.54951 70.5144 12.012 72.7838C13.4118 73.3748 15.1918 73.3925 16.7361 73.1936C19.4842 72.8429 21.8739 71.3989 24.2597 70.0633C24.4273 69.9626 24.5723 69.8284 24.6854 69.6693C25.9386 68.0126 27.6156 66.9646 29.5678 66.3204C29.8167 66.239 30.0838 66.2294 30.338 66.2928C32.2642 66.861 34.3362 66.6705 36.1252 65.7609C38.1427 64.776 39.99 64.8154 41.8669 65.9363C42.8569 66.5273 43.8844 67.067 44.7734 67.7801C46.2544 68.9621 47.8462 69.4999 49.7766 69.5078C52.4237 69.5216 55.0253 69.561 57.6091 68.7829C61.7431 67.5398 64.4179 64.7188 66.1919 61.0094C67.6491 57.9599 66.6038 55.0602 64.9347 52.4401C61.9035 47.6827 55.7816 47.3183 51.9347 49.8418C51.4892 50.1353 50.6735 50.0841 50.1211 49.9087C49.8419 49.8201 49.6538 49.103 49.6281 48.6578C49.5905 48.0471 49.7251 47.4207 49.8261 46.8061C50.133 44.846 49.7825 42.9588 49.2183 41.0932C49.151 40.8726 49.0044 40.6401 49.0381 40.4352C49.1241 40.0333 49.2399 39.6382 49.3846 39.2533C49.7489 39.4621 50.1251 39.6473 50.4696 39.8896C50.5864 39.9861 50.6299 40.1811 50.7507 40.3998ZM73.274 19.9891C71.1437 21.0627 68.9974 22.1364 66.8631 23.2297C66.7839 23.2759 66.717 23.3402 66.6677 23.4173C66.6185 23.4944 66.5884 23.582 66.58 23.6729C66.5958 23.8148 66.7958 23.9665 66.9482 24.0669C67.5422 24.4274 68.1916 24.717 68.748 25.1268C69.5003 25.6783 70.3319 25.6508 70.9575 24.9475C71.7831 24.0098 72.5672 23.0307 73.4463 22.1462C74.1769 21.3937 74.2046 20.7653 73.274 19.9891Z" fill="white"/>
<path d="M50.7507 40.3998L55.5025 34.2929C54.1165 33.2646 52.8177 32.2284 51.4476 31.2848C49.937 30.2407 49.5826 29.1711 50.3785 27.5143C50.6481 26.9511 50.9626 26.4103 51.3189 25.897C53.0771 23.3971 53.378 20.7003 52.4633 17.832C52.1525 16.8628 51.7981 15.9074 51.4892 14.9382C51.3359 14.5414 51.2502 14.1219 51.2358 13.6971C51.2358 13.4331 51.4773 13.0273 51.6931 12.9643C51.909 12.9012 52.396 13.1041 52.4851 13.313C54.1106 16.9554 55.548 20.6589 53.8334 24.6658C53.4196 25.6291 52.7128 26.5156 51.9802 27.2858C51.018 28.2964 51.0457 29.0213 52.2257 29.7266C52.9853 30.1914 53.7128 30.7061 54.4036 31.2671C55.0966 31.8167 55.7341 32.4353 56.5815 33.1898C56.6533 33.0046 56.7449 32.8276 56.8547 32.6618C59.5104 29.439 62.1721 26.2214 64.8396 23.0091C65.0327 22.7446 65.2779 22.522 65.5603 22.355C68.8687 20.7298 72.1791 19.1105 75.5113 17.5346C76.2439 17.1879 77.0615 17.0145 78.006 16.7092C77.9664 17.1938 77.9901 17.5464 77.901 17.8714C76.9111 21.4725 75.8914 25.0677 74.9153 28.6727C74.4857 30.2604 73.377 31.3892 72.4009 32.6126C69.233 36.6076 66.0929 40.6204 62.9152 44.6076C62.4479 45.1986 62.4202 45.7305 62.446 46.4672C62.4855 47.6689 63.0261 48.2402 63.9586 48.8903C68.249 51.924 69.5677 58.3303 66.9146 62.8297C63.5943 68.4558 58.7059 71.3792 52.0792 71.198C50.4953 71.1547 48.8936 71.1488 47.369 70.804C46.1243 70.5266 44.9562 69.9797 43.9478 69.2025C42.4133 68.0016 40.6016 67.2012 38.6773 66.874C38.3556 66.8324 38.0287 66.878 37.7309 67.006C35.2145 68.0087 32.6802 68.7632 29.942 67.8826C29.7985 67.8576 29.6513 67.8622 29.5097 67.8961C29.368 67.93 29.2348 67.9924 29.1184 68.0796C28.0235 68.903 26.9642 69.7718 25.8872 70.6208C25.4536 70.9616 25.0318 71.3221 24.5705 71.6235C22.3396 73.0964 19.857 74.1512 17.2449 74.736C14.2454 75.4019 11.4418 74.7617 8.91351 73.1955C3.65886 69.9372 0.795929 65.1877 0.065347 59.0316C-0.346472 55.5448 1.38594 53.3975 4.02514 51.7428C5.22694 50.9902 6.68217 50.6416 8.00474 50.0703C8.26609 49.956 8.63039 49.6645 8.63633 49.4438C8.7967 44.6844 10.5707 40.5515 13.6474 36.9859C15.4036 34.9529 17.3578 33.0873 19.2664 31.1016C17.0885 29.0529 15.8709 26.2713 15.3304 23.2218C15.1511 22.0523 14.6385 20.9584 13.8534 20.0699C12.3664 18.3422 11.3844 16.2659 11.325 13.9887C11.2518 11.2583 12.21 8.77813 14.0454 6.68998C16.3223 4.09949 19.3278 3.5026 22.5075 4.04631C23.6954 4.2433 24.4636 3.96554 25.3684 3.45532C25.9661 3.10786 26.6099 2.84591 27.281 2.67719C27.8096 2.55111 28.3937 2.65158 28.952 2.65158C28.9877 2.78357 29.0253 2.91358 29.0609 3.04557C28.5818 3.40804 28.1244 3.80006 27.6215 4.12313C26.4336 4.88747 25.0833 5.46664 24.0577 6.39843C22.6579 7.66511 21.5136 9.20561 20.2148 10.5865C19.9217 10.8978 19.4466 11.0337 19.0545 11.2504C18.9951 10.8013 18.7318 10.228 18.914 9.92267C19.6414 8.76127 20.4298 7.6388 21.276 6.55996C21.474 6.29205 21.8581 6.15612 22.0679 5.87639C17.3914 5.2854 14.1602 7.40113 13.2495 12.129C12.7407 14.7786 13.9801 16.9219 15.3502 18.9982C16.0312 20.0285 16.6569 20.9091 16.8529 22.3038C17.2366 24.9897 18.39 27.5086 20.1752 29.5591C20.6761 30.1403 21.0622 30.8179 21.476 31.4109C16.2629 36.1979 11.2736 40.8903 10.3687 48.2422C10.3093 48.7268 10.2579 49.2114 10.2242 49.5128C12.1823 50.0269 14.0494 50.4978 15.9006 51.0119C16.8252 51.268 17.4152 51.8196 17.136 53.0902C16.2748 52.8361 15.3838 52.5977 14.5087 52.3141C11.0993 51.201 7.80279 51.2818 4.7577 53.3542C1.8532 55.3241 1.03154 57.0971 1.88289 60.5918C3.25298 66.2219 6.54951 70.5144 12.012 72.7838C13.4118 73.3748 15.1918 73.3925 16.7361 73.1936C19.4842 72.8429 21.8739 71.3989 24.2597 70.0633C24.4273 69.9626 24.5723 69.8284 24.6854 69.6693C25.9386 68.0126 27.6156 66.9646 29.5678 66.3204C29.8167 66.239 30.0838 66.2294 30.338 66.2928C32.2642 66.861 34.3362 66.6705 36.1252 65.7609C38.1427 64.776 39.99 64.8154 41.8669 65.9363C42.8569 66.5273 43.8844 67.067 44.7734 67.7801C46.2544 68.9621 47.8462 69.4999 49.7766 69.5078C52.4237 69.5216 55.0253 69.561 57.6091 68.7829C61.7431 67.5398 64.4179 64.7188 66.1919 61.0094C67.6491 57.9599 66.6038 55.0602 64.9347 52.4401C61.9035 47.6827 55.7816 47.3183 51.9347 49.8418C51.4892 50.1353 50.6735 50.0841 50.1211 49.9087C49.8419 49.8201 49.6538 49.103 49.6281 48.6578C49.5905 48.0471 49.7251 47.4207 49.8261 46.8061C50.133 44.846 49.7825 42.9588 49.2183 41.0932C49.151 40.8726 49.0044 40.6401 49.0381 40.4352C49.1241 40.0333 49.2399 39.6382 49.3846 39.2533C49.7489 39.4621 50.1251 39.6473 50.4696 39.8896C50.5864 39.9861 50.6299 40.1811 50.7507 40.3998ZM73.274 19.9891C71.1437 21.0627 68.9974 22.1364 66.8631 23.2297C66.7839 23.2759 66.717 23.3402 66.6677 23.4173C66.6185 23.4944 66.5884 23.582 66.58 23.6729C66.5958 23.8148 66.7958 23.9665 66.9482 24.0669C67.5422 24.4274 68.1916 24.717 68.748 25.1268C69.5003 25.6783 70.3319 25.6508 70.9575 24.9475C71.7831 24.0098 72.5672 23.0307 73.4463 22.1462C74.1769 21.3937 74.2046 20.7653 73.274 19.9891Z" fill="white"/>
<path d="M46.486 6.3334C45.8088 5.96502 45.1713 5.70105 44.6288 5.30903C42.3091 3.62531 39.6987 2.37937 36.927 1.6331C36.3647 1.48141 35.4738 1.39276 35.6579 0.567353C35.842 -0.258056 36.6637 0.0275864 37.2517 0.135934C40.2404 0.705144 43.0388 2.00795 45.3931 3.92612C46.0741 4.47376 46.684 5.14355 46.486 6.3334Z" fill="white"/>
<path d="M56.4726 7.56269C56.1221 8.91408 55.8311 10.2852 55.3935 11.607C55.2331 12.0877 54.7501 12.4856 54.3501 12.852C54.2333 12.9584 53.8235 12.9052 53.6789 12.7772C53.6137 12.6829 53.5726 12.5743 53.5591 12.4606C53.5457 12.347 53.5603 12.2318 53.6017 12.1251C55.0728 9.11107 55.3104 6.11871 53.5839 3.10074C53.4413 2.85056 53.6393 2.40733 53.6769 2.05273C54.0432 2.1729 54.5224 2.18669 54.758 2.43096C55.6489 3.35881 56.3023 5.70306 56.4726 7.56269Z" fill="white"/>
<path d="M22.254 49.9442C22.0817 50.8819 21.9194 51.9476 21.6778 52.9937C21.5828 53.4083 21.3777 53.79 21.0839 54.0988C20.8522 54.3273 20.4246 54.3549 20.0939 54.4711C20.0286 54.15 19.8801 53.8171 19.9157 53.5078C20.0959 51.9319 20.3394 50.3559 20.5236 48.7799C20.5612 48.4667 20.4483 48.1338 20.3968 47.8127C20.3077 47.2709 20.2404 46.6662 20.9215 46.5283C21.6719 46.3766 21.8461 47.007 21.9431 47.5704C22.0679 48.3032 22.1332 49.0518 22.254 49.9442Z" fill="white"/>
<path d="M21.7472 42.6771C21.5928 42.3343 21.3651 42.0526 21.3512 41.763C21.2562 39.9132 22.0462 38.4141 23.341 37.1514C23.5192 36.978 23.9488 36.9681 24.226 37.0351C24.3488 37.0647 24.5052 37.5256 24.424 37.701C23.7746 39.2297 23.0856 40.7406 22.3768 42.2437C22.3035 42.4151 22.0264 42.4958 21.7472 42.6771Z" fill="white"/>
</g>
<defs>
<clipPath id="clip0_405_693">
<rect width="78" height="75" fill="white"/>
</clipPath>
</defs>
</svg>
